<svg width="71" height="41" viewBox="0 0 71 41" fill="none" xmlns="http://www.w3.org/2000/svg">
<path d="M14.0026 27.9041L64.0909 28.002C64.0909 28.002 68.79 28.8823 68.79 34.6543C68.09 39.839 64.1908 40.2302 64.1908 40.2302L6.60436 40.3281C6.60436 40.3281 1.7053 39.9367 1.20545 34.2627C1.20545 34.2627 0.805098 27.8885 10.5033 27.8955C13.4025 27.9027 14.0026 27.9041 14.0026 27.9041Z" fill="white"/>
<path d="M50.4948 28.8966L29.2344 28.3037" stroke="#A7D4B7" stroke-width="0.615104"/>
<path d="M59.7072 27.5374C59.7072 27.5374 59.8096 2.42038 37.2559 0.472656" stroke="#A7CDB3" stroke-width="0.922656"/>
<path d="M13.9902 12.2055C14.083 11.934 14.3056 11.6607 14.3849 11.366C14.4745 11.0052 14.5373 10.6381 14.5726 10.268C14.6025 10.0086 14.7618 8.36051 15.0904 8.42778C15.0833 8.47679 15.062 8.52263 15.029 8.55963C14.9961 8.59663 14.9531 8.62316 14.9052 8.63592" stroke="#1D1D1B" stroke-width="0.0882828"/>
<path d="M14.1738 12.3053C14.391 12.1019 14.5476 11.7922 14.7942 11.5884C15.1019 11.3431 15.4251 11.1178 15.7619 10.9142C15.9975 10.7664 17.5092 9.85304 17.2877 9.62207C17.2458 9.6467 17.2125 9.68365 17.1924 9.72789C17.1723 9.77213 17.1663 9.8215 17.1753 9.86925" stroke="#1D1D1B" stroke-width="0.0882828"/>
<path d="M9.14916 11.1484C9.14916 11.1484 8.32516 9.79929 9.2705 7.75996C9.2705 7.75996 10.0439 4.62316 11.7629 6.89752C13.4815 9.17187 14.2861 11.9535 13.7548 12.5626" fill="#ECDB00"/>
<path d="M9.14916 11.1484C9.14916 11.1484 8.32516 9.79929 9.2705 7.75996C9.2705 7.75996 10.0439 4.62316 11.7629 6.89752C13.4815 9.17187 14.2861 11.9535 13.7548 12.5626" stroke="white" stroke-width="0.153776"/>
<path d="M17.4737 15.7032C17.4737 15.7032 19.1659 15.7371 20.6997 14.0216C20.6997 14.0216 23.3772 11.9312 20.3703 11.608C17.3638 11.2839 14.2931 11.9351 13.9512 12.6487" fill="#ECDB00"/>
<path d="M17.4737 15.7032C17.4737 15.7032 19.1659 15.7371 20.6997 14.0216C20.6997 14.0216 23.3772 11.9312 20.3703 11.608C17.3638 11.2839 14.2931 11.9351 13.9512 12.6487" stroke="white" stroke-width="0.153776"/>
<path d="M12.9743 10.7888C12.4812 9.71593 11.6138 9.02123 11.0364 9.23778C10.4593 9.45404 10.391 10.4997 10.8842 11.5725C11.3767 12.6452 12.244 13.3396 12.8211 13.1236C13.3986 12.9069 13.4671 11.862 12.9743 10.7888Z" fill="white" stroke="white" stroke-width="0.153776"/>
<path d="M16.345 14.4477C17.603 14.2589 18.5442 13.6497 18.4474 13.0873C18.3505 12.5249 17.2521 12.2218 15.994 12.4106C14.7359 12.5992 13.7949 13.2083 13.8916 13.7709C13.9883 14.3337 15.0867 14.6364 16.345 14.4477Z" fill="white" stroke="white" stroke-width="0.153776"/>
<path d="M12.3812 14.7741C12.3812 14.7741 12.11 19.3401 15.9039 18.8405C15.9039 18.8405 19.1251 18.5281 17.117 15.0614C16.032 13.1898 13.9907 13.0213 13.6105 13.2045" fill="#ECDB00"/>
<path d="M12.3812 14.7741C12.3812 14.7741 12.11 19.3401 15.9039 18.8405C15.9039 18.8405 19.1251 18.5281 17.117 15.0614C16.032 13.1898 13.9907 13.0213 13.6105 13.2045" stroke="white" stroke-width="0.307552"/>
<path d="M15.8257 14.9944C16.2178 16.138 15.8742 17.2536 15.0591 17.4865C14.2432 17.719 13.2646 16.9803 12.873 15.8366C12.4809 14.693 12.8248 13.5774 13.6402 13.3445C14.4554 13.1122 15.4342 13.8507 15.8257 14.9944Z" fill="white" stroke="white" stroke-width="0.153776"/>
<path d="M12.2897 14.8033C12.2897 14.8033 7.99296 17.1559 6.70389 13.8625C6.70389 13.8625 5.5007 11.1172 9.79757 11.1172C12.1183 11.1172 13.2353 12.6857 13.2353 13.0778" fill="#ECDB00"/>
<path d="M12.2897 14.8033C12.2897 14.8033 7.99296 17.1559 6.70389 13.8625C6.70389 13.8625 5.5007 11.1172 9.79757 11.1172C12.1183 11.1172 13.2353 12.6857 13.2353 13.0778" stroke="white" stroke-width="0.307552"/>
<path d="M10.2613 12.0967C9.75373 12.1895 9.6043 12.209 8.95812 12.6055C8.31177 13.0019 8.13218 13.4437 8.23339 13.9069C8.40144 14.6712 9.58104 15.1006 10.8689 14.8651C12.1565 14.6301 13.0641 13.8196 12.8967 13.0551C12.7291 12.2906 11.5492 11.8614 10.2613 12.0967Z" fill="white" stroke="white" stroke-width="0.153776"/>
<path d="M14.1954 12.6509C14.1954 12.6509 14.2858 12.3645 14.0918 12.2456C14.0322 12.2126 13.9643 12.1975 13.8963 12.2019C13.8284 12.2064 13.7631 12.2302 13.7082 12.2707C13.4816 12.4917 13.2698 12.7276 13.0742 12.9766C12.934 13.192 12.8958 13.4478 12.6414 13.8637C12.5276 14.0497 11.2277 15.7934 11.4542 15.9602C11.6236 16.0846 12.1199 15.4025 12.97 14.0705C12.97 14.0705 13.4897 13.5656 13.6719 13.3581C13.8544 13.151 14.1954 12.6509 14.1954 12.6509Z" fill="#1D1D1B"/>
<path d="M59.8697 28.2259C59.8697 28.2259 58.6394 15.9238 56.0253 13.6171C53.4111 11.3105 47.26 15.9238 46.3374 17.9229C45.4147 19.922 43.4156 24.2277 36.3419 24.3815C29.2682 24.5352 22.5021 26.6881 20.8105 27.9183C26.3465 28.0721 59.8697 28.2259 59.8697 28.2259Z" fill="#A7D4B7" stroke="#A7D4B7" stroke-width="0.153776"/>
<path d="M31.9327 28.4558L36.2974 28.8166C36.2974 28.8166 38.7757 13.4233 39.8642 13.248C40.9529 13.0726 48.8099 5.30288 48.8099 5.30288L45.3388 2.80957L38.2111 4.52048L34.25 12.5736L30.9238 21.6827L31.2275 28.055L31.9327 28.4558Z" fill="#A7D4B7" stroke="white" stroke-width="0.307552"/>
<path d="M27.1393 28.4941C27.1393 28.4941 26.8294 10.311 40.4131 1.16504C40.4131 1.16504 42.0722 1.25927 42.6585 1.48025C43.2452 1.70198 45.0036 2.55144 45.0036 2.55144C45.0036 2.55144 30.9783 8.8648 31.3163 28.1063L27.1393 28.4941Z" fill="#009ADA" stroke="white" stroke-width="0.307552"/>
<path d="M34.5078 28.2208C35.4479 12.6933 41.9427 8.36896 48.3646 4.68945C49.2972 5.50231 50.1594 6.39249 50.942 7.3505C41.6064 11.4762 38.4868 19.6709 37.9663 28.412L34.5078 28.2208Z" fill="#ECDB00" stroke="white" stroke-width="0.307552"/>
<path d="M17.1777 8.77626C17.1777 8.77626 29.1051 -6.65346 48.4856 3.40491C57.1784 8.23489 60.4846 20.0756 60.6095 28.1902L58.8447 28.2669C58.8447 28.2669 58.9213 11.2319 47.3343 5.01625C35.7475 -1.19921 24.6977 0.182221 17.1777 8.77626Z" fill="#A7CDB3"/>
<path d="M55.3469 29.1394L44.0762 29.6516V21.6517L53.2961 15.6602L55.5834 20.4693L55.4007 20.7521L55.4258 28.9816" fill="white"/>
<path d="M53.1852 15.6602H45.6495L42.5703 21.9739H50.106L53.1852 15.6602Z" fill="url(#paint0_linear)" stroke="#1D1D1B" stroke-width="0.307552"/>
<path d="M55.5553 20.752H50.8711V28.0838H55.5553V20.752Z" stroke="#1D1D1B" stroke-width="0.307552"/>
<path d="M53.8404 24.0781H52.0078V28.6689H53.8404V24.0781Z" stroke="#1D1D1B" stroke-width="0.307552"/>
<path d="M49.0879 13.7598H47.7305V18.0565H49.0879V13.7598Z" fill="#1D1D1B" stroke="#1D1D1B" stroke-width="0.307552"/>
<path d="M45.6243 22.1094H44.1309V28.2874H45.6243V22.1094Z" stroke="#1D1D1B" stroke-width="0.307552"/>
<path d="M43.9961 24.1465H45.6935" stroke="#1D1D1B" stroke-width="0.307552"/>
<path d="M45.7363 25.2998H48.4091" stroke="#1D1D1B" stroke-width="0.307552"/>
<path d="M48.1367 23.6025H50.7973" stroke="#1D1D1B" stroke-width="0.307552"/>
<path d="M48.2734 21.9062L48.3032 28.3192" stroke="#1D1D1B" stroke-width="0.307552"/>
<path d="M14.1222 27.9034L65.4834 28.006C65.4834 28.006 70.3016 28.9286 70.3016 34.9771C69.5838 40.4105 65.5858 40.8206 65.5858 40.8206L6.53594 40.9231C6.53594 40.9231 1.51254 40.513 1 34.567C1 34.567 2.64018 39.0778 6.3308 39.1802C10.0214 39.2828 64.9707 39.2828 64.9707 39.2828C64.9707 39.2828 68.5589 39.1802 68.7639 34.8745C68.8663 30.0563 65.3809 29.5437 65.3809 29.5437L10.534 27.8945L14.1222 27.9034Z" fill="#A7D4B7" stroke="#A7D4B7" stroke-width="0.153776"/>
<path d="M53.2969 15.5723L56.4226 22.0861" stroke="#1D1D1B" stroke-width="0.307552"/>
<defs>
<linearGradient id="paint0_linear" x1="42.5704" y1="18.817" x2="53.1851" y2="18.817" gradientUnits="userSpaceOnUse">
<stop offset="0.01124" stop-color="#1D1D1B"/>
<stop offset="1" stop-color="white"/>
</linearGradient>
</defs>
</svg>
